PathFileType	4	(X/Y/Z)	/Users/itak/Documents/Research/Walk-IL/dataset/trc/00051_00006.trc
DataRate	CameraRate	NumFrames	NumMarkers	Units	OrigDataRate	OrigDataStartFrame	OrigNumFrames
100.000000	100.000000	4	53	mm	100.000000	0	527
Frame#	Time	RPSI			LPSI			L3			STRN			T10			C7			CLAV			RBAK			LBAK			LSHO			LUPA			LAEL			LAOL			LWTS			LWPS			LFRA			LIFD			LHPS			LHTS			RSHO			RUPA			RAEL			RAOL			RWTS			RWPS			RFRA			RIFD			RHTS			RHPS			RBHD			LFHD			RFHD			LBHD			LHIP			RHIP			RASI			LASI			LKNE			LTHI			LANK			LTIP			LTOE			LMT1			LMT5			LHEE			RKNE			RTHI			RANK			RTIP			RTOE			RMT1			RMT5			RHEE			
		X1	Y1	Z1	X2	Y2	Z2	X3	Y3	Z3	X4	Y4	Z4	X5	Y5	Z5	X6	Y6	Z6	X7	Y7	Z7	X8	Y8	Z8	X9	Y9	Z9	X10	Y10	Z10	X11	Y11	Z11	X12	Y12	Z12	X13	Y13	Z13	X14	Y14	Z14	X15	Y15	Z15	X16	Y16	Z16	X17	Y17	Z17	X18	Y18	Z18	X19	Y19	Z19	X20	Y20	Z20	X21	Y21	Z21	X22	Y22	Z22	X23	Y23	Z23	X24	Y24	Z24	X25	Y25	Z25	X26	Y26	Z26	X27	Y27	Z27	X28	Y28	Z28	X29	Y29	Z29	X30	Y30	Z30	X31	Y31	Z31	X32	Y32	Z32	X33	Y33	Z33	X34	Y34	Z34	X35	Y35	Z35	X36	Y36	Z36	X37	Y37	Z37	X38	Y38	Z38	X39	Y39	Z39	X40	Y40	Z40	X41	Y41	Z41	X42	Y42	Z42	X43	Y43	Z43	X44	Y44	Z44	X45	Y45	Z45	X46	Y46	Z46	X47	Y47	Z47	X48	Y48	Z48	X49	Y49	Z49	X50	Y50	Z50	X51	Y51	Z51	X52	Y52	Z52	X53	Y53	Z53	

1	0	939.5360107421875	1022.416625976562	-199.5764923095703	921.4951782226562	1014.255737304688	-375.6832885742188	935.9894409179688	1072.043579101562	-293.666259765625	1178.785766601562	1272.340087890625	-304.1083984375	912.1091918945312	1207.56591796875	-297.8410339355469	968.316162109375	1474.502807617188	-308.2490844726562	1148.171508789062	1386.84375	-307.8839721679688	908.4854125976562	1337.0986328125	-228.1533660888672	944.8603515625	1434.249267578125	-408.2784423828125	1048.52294921875	1436.87548828125	-482.1746520996094	1035.080932617188	1306.40966796875	-555.364013671875	1065.278076171875	1090.585327148438	-563.6620483398438	1002.840148925781	1077.646484375	-479.0273742675781	1165.755004882812	858.9942626953125	-485.5375061035156	1110.249145507812	842.3795776367188	-546.7138061523438	1091.021850585938	982.1104736328125	-564.9446411132812	1187.473510742188	674.0153198242188	-457.0001525878906	1146.813842773438	763.3001708984375	-536.69091796875	1191.875	778.0802612304688	-483.2596740722656	1038.095825195312	1440.7880859375	-131.1890106201172	1030.443115234375	1371.5595703125	-66.55835723876953	1012.837341308594	1102.905639648438	-42.97031784057617	1025.319946289062	1083.619873046875	-139.8421783447266	1159.45263671875	857.0303955078125	-93.48184967041016	1094.103881835938	838.8721923828125	-38.31432723999023	1028.858154296875	1023.865112304688	-38.49356079101562	1162.024536132812	673.1286010742188	-123.6836090087891	1187.220336914062	756.0079956054688	-97.13202667236328	1135.505249023438	749.7432250976562	-39.55490875244141	1004.177917480469	1650.905029296875	-377.4273071289062	1161.245727539062	1688.7041015625	-233.1254730224609	1176.146728515625	1696.437133789062	-357.7188720703125	997.3749389648438	1636.057373046875	-240.8694305419922	959.2772827148438	971.3067016601562	-495.5556030273438	1009.703796386719	953.2546997070312	-124.7347259521484	1134.529296875	968.713134765625	-152.0647735595703	1139.686157226562	959.2711181640625	-420.5086975097656	1090.897338867188	486.216552734375	-426.0465698242188	1061.589599609375	626.9569091796875	-459.1933898925781	941.1854248046875	39.99015045166016	-447.6571960449219	1008.328979492188	250.2962188720703	-450.6639709472656	1146.817993164062	30.77426910400391	-454.0387573242188	1100.43505859375	31.23179054260254	-397.0240173339844	1040.939453125	29.34032440185547	-492.3555908203125	893.299560546875	37.88325500488281	-369.5169677734375	1072.71337890625	507.0953369140625	-139.36572265625	1090.405395507812	779.749755859375	-115.5187759399414	967.4568481445312	36.11442565917969	-135.0126647949219	1045.629638671875	386.7264709472656	-133.6485900878906	1183.988159179688	27.4648494720459	-168.9344787597656	1122.958740234375	33.54291915893555	-210.8146209716797	1091.378295898438	36.2338981628418	-118.4999847412109	919.6063232421875	36.80803680419922	-191.1950836181641	
2	0.01	939.538330078125	1022.415222167969	-199.5761260986328	921.493896484375	1014.255554199219	-375.6882629394531	935.97802734375	1072.055053710938	-293.6747436523438	1178.802612304688	1272.335327148438	-304.096435546875	912.1650390625	1207.580322265625	-297.8420715332031	968.3427734375	1474.504272460938	-308.2463073730469	1148.200073242188	1386.84521484375	-307.8863830566406	908.5018920898438	1337.104736328125	-228.1638641357422	944.9082641601562	1434.261596679688	-408.2811279296875	1048.5693359375	1436.882446289062	-482.1717529296875	1035.107177734375	1306.4267578125	-555.3675537109375	1065.257568359375	1090.59814453125	-563.70068359375	1002.789733886719	1077.652465820312	-479.0862121582031	1165.655151367188	858.9319458007812	-485.7103271484375	1110.12451171875	842.3595581054688	-546.8778076171875	1090.961059570312	982.1333618164062	-565.0374755859375	1187.263793945312	673.9552612304688	-457.2583923339844	1146.645629882812	763.2488403320312	-536.9036865234375	1191.704345703125	777.999755859375	-483.4718933105469	1038.1171875	1440.783569335938	-131.1786804199219	1030.437744140625	1371.554565429688	-66.55422210693359	1012.760864257812	1102.914794921875	-42.95213317871094	1025.298095703125	1083.602661132812	-139.8195495605469	1159.234985351562	856.9327392578125	-93.33195495605469	1093.85888671875	838.851318359375	-38.2118034362793	1028.78173828125	1023.885498046875	-38.44260787963867	1161.751098632812	673.0592651367188	-123.5150909423828	1186.968994140625	755.9441528320312	-96.99591827392578	1135.24755859375	749.7030029296875	-39.38080215454102	1004.192810058594	1650.891357421875	-377.4088134765625	1161.2509765625	1688.690185546875	-233.0973052978516	1176.1796875	1696.431030273438	-357.7106018066406	997.3844604492188	1636.05224609375	-240.8589477539062	959.9078369140625	971.0737915039062	-495.2582702636719	1009.654846191406	953.2586059570312	-124.7419891357422	1134.51904296875	968.723388671875	-152.0571136474609	1139.685668945312	959.2613525390625	-420.4942321777344	1090.894775390625	486.2118835449219	-426.0369567871094	1061.58251953125	626.9581909179688	-459.1878356933594	941.1882934570312	39.9886474609375	-447.6589660644531	1008.328430175781	250.2962799072266	-450.6632080078125	1146.816772460938	30.7740650177002	-454.0383605957031	1100.436401367188	31.2349681854248	-397.0234375	1040.939086914062	29.33998107910156	-492.3556518554688	893.3006591796875	37.87305068969727	-369.5133361816406	1072.713256835938	507.0989074707031	-139.3645324707031	1090.395751953125	779.7514038085938	-115.5107040405273	967.4619750976562	36.11104202270508	-135.0142517089844	1045.63330078125	386.7276306152344	-133.6395263671875	1183.99560546875	27.44107818603516	-168.9214019775391	1122.959106445312	33.53884887695312	-210.8191223144531	1091.37939453125	36.23518371582031	-118.5020446777344	919.6100463867188	36.80624389648438	-191.1971282958984	
3	0.02	939.540283203125	1022.414184570312	-199.5760192871094	921.4930419921875	1014.255981445312	-375.6943664550781	935.9662475585938	1072.070678710938	-293.6851196289062	1178.8251953125	1272.328735351562	-304.0790710449219	912.2488403320312	1207.599609375	-297.8414001464844	968.3790283203125	1474.50634765625	-308.2409362792969	1148.238159179688	1386.846313476562	-307.8895263671875	908.525390625	1337.113403320312	-228.1768798828125	944.9736328125	1434.279174804688	-408.2845764160156	1048.629028320312	1436.891235351562	-482.1670532226562	1035.141967773438	1306.450439453125	-555.37353515625	1065.229858398438	1090.616088867188	-563.7557373046875	1002.727416992188	1077.660400390625	-479.166015625	1165.519775390625	858.851806640625	-485.9557800292969	1109.954956054688	842.3401489257812	-547.1118774414062	1090.874389648438	982.1631469726562	-565.1677856445312	1186.988647460938	673.8809204101562	-457.6326904296875	1146.416381835938	763.1856689453125	-537.2040405273438	1191.481323242188	777.8923950195312	-483.7747802734375	1038.145385742188	1440.777709960938	-131.1657257080078	1030.431030273438	1371.548583984375	-66.54875946044922	1012.663818359375	1102.927368164062	-42.92627716064453	1025.266967773438	1083.579711914062	-139.7876129150391	1158.949462890625	856.807861328125	-93.13272857666016	1093.538452148438	838.8243408203125	-38.07021713256836	1028.68017578125	1023.912780761719	-38.37412261962891	1161.375732421875	672.9566040039062	-123.2778167724609	1186.6318359375	755.8551635742188	-96.80548858642578	1134.90283203125	749.6497192382812	-39.14820861816406	1004.21337890625	1650.873291015625	-377.3836669921875	1161.260620117188	1688.673706054688	-233.0616149902344	1176.221435546875	1696.421264648438	-357.6986694335938	997.3973999023438	1636.04541015625	-240.8447875976562	960.7029418945312	970.78125	-494.8827209472656	1009.592895507812	953.2623901367188	-124.7500305175781	1134.504150390625	968.736083984375	-152.0455322265625	1139.686157226562	959.2498779296875	-420.4748840332031	1090.890380859375	486.2047119140625	-426.023681640625	1061.574829101562	626.9594116210938	-459.1806335449219	941.1919555664062	39.98683547973633	-447.6609191894531	1008.327575683594	250.2960510253906	-450.6618347167969	1146.815063476562	30.77385139465332	-454.0379943847656	1100.438720703125	31.24016952514648	-397.0233459472656	1040.938842773438	29.33965682983398	-492.355712890625	893.3017578125	37.86079406738281	-369.5087890625	1072.712768554688	507.1027221679688	-139.3616180419922	1090.382080078125	779.7539672851562	-115.4975280761719	967.4678344726562	36.10669708251953	-135.0155944824219	1045.63720703125	386.7287292480469	-133.6275024414062	1184.004516601562	27.41313552856445	-168.9055786132812	1122.95947265625	33.53470230102539	-210.8236846923828	1091.381225585938	36.23687362670898	-118.5040740966797	919.6134643554688	36.80442047119141	-191.1992645263672	
4	0.03	939.5414428710938	1022.413940429688	-199.5763092041016	921.49267578125	1014.257446289062	-375.7012634277344	935.955810546875	1072.09033203125	-293.6966552734375	1178.852783203125	1272.320068359375	-304.0556945800781	912.3626708984375	1207.623413085938	-297.8381042480469	968.4248046875	1474.509155273438	-308.2321472167969	1148.284545898438	1386.846313476562	-307.8931579589844	908.5562133789062	1337.125	-228.1916656494141	945.0559692382812	1434.30224609375	-408.2885437011719	1048.700073242188	1436.901245117188	-482.1600341796875	1035.184326171875	1306.48095703125	-555.3826293945312	1065.195068359375	1090.639404296875	-563.8285522460938	1002.656494140625	1077.670043945312	-479.2663269042969	1165.350219726562	858.7567138671875	-486.278076171875	1109.741821289062	842.3255615234375	-547.4202880859375	1090.760375976562	982.1993408203125	-565.337158203125	1186.654296875	673.7953491210938	-458.132080078125	1146.12744140625	763.1146240234375	-537.5961303710938	1191.211791992188	777.760498046875	-484.1738586425781	1038.179931640625	1440.770751953125	-131.1509094238281	1030.423583984375	1371.541870117188	-66.54206848144531	1012.550354003906	1102.943237304688	-42.89244079589844	1025.225830078125	1083.551147460938	-139.7458953857422	1158.603759765625	856.6607055664062	-92.88805389404297	1093.151000976562	838.7920532226562	-37.88972473144531	1028.55517578125	1023.946655273438	-38.28912734985352	1160.90087890625	672.8175659179688	-122.9700698852539	1186.213989257812	755.73974609375	-96.55989074707031	1134.475952148438	749.5844116210938	-38.86126327514648	1004.239440917969	1650.85107421875	-377.3519897460938	1161.275634765625	1688.65625	-233.0199432373047	1176.270263671875	1696.407104492188	-357.6830444335938	997.4137573242188	1636.037109375	-240.8270263671875	961.6316528320312	970.4412841796875	-494.4435424804688	1009.52197265625	953.26513671875	-124.7576370239258	1134.484375	968.7506713867188	-152.0295867919922	1139.688354492188	959.2376708984375	-420.4510803222656	1090.884033203125	486.1946411132812	-426.0067749023438	1061.567504882812	626.9605712890625	-459.171875	941.1961669921875	39.98488235473633	-447.6628723144531	1008.326232910156	250.2953796386719	-450.65966796875	1146.813232421875	30.77366065979004	-454.0376281738281	1100.442138671875	31.24756813049316	-397.0239562988281	1040.938598632812	29.33941268920898	-492.3557739257812	893.3026733398438	37.84750747680664	-369.5036926269531	1072.71142578125	507.1061706542969	-139.3563690185547	1090.364379882812	779.7575073242188	-115.4783554077148	967.4736938476562	36.10158538818359	-135.0163116455078	1045.64111328125	386.7296752929688	-133.61279296875	1184.014282226562	27.38356590270996	-168.8884429931641	1122.960083007812	33.53127288818359	-210.8274536132812	1091.3837890625	36.23893737792969	-118.5056381225586	919.61572265625	36.8028450012207	-191.2011413574219	
